HIERARCHY
ROOT Hips
{
	OFFSET 0.00000 0.00000 0.00000
	CHANNELS 6 Xposition Yposition Zposition Zrotation Yrotation Xrotation 
	JOINT LHipJoint
	{
		OFFSET 0 0 0
		CHANNELS 3 Zrotation Yrotation Xrotation
		JOINT LeftHip
		{
			OFFSET 1.56857 -1.73443 1.15205
			CHANNELS 3 Zrotation Yrotation Xrotation
			JOINT LeftKnee
			{
				OFFSET 2.39362 -6.57643 0.00000
				CHANNELS 3 Zrotation Yrotation Xrotation
				JOINT LeftAnkle
				{
					OFFSET 2.50952 -6.89485 0.00000
					CHANNELS 3 Zrotation Yrotation Xrotation
					JOINT LeftToe
					{
						OFFSET 0.17171 -0.47178 1.88682
						CHANNELS 3 Zrotation Yrotation Xrotation
						End Site
						{
							OFFSET 0.00000 -0.00000 0.98146
						}
					}
				}
			}
		}
	}
	JOINT RHipJoint
	{
		OFFSET 0 0 0
		CHANNELS 3 Zrotation Yrotation Xrotation
		JOINT RightHip
		{
			OFFSET -1.28153 -1.73443 1.15205
			CHANNELS 3 Zrotation Yrotation Xrotation
			JOINT RightKnee
			{
				OFFSET -2.26861 -6.23296 0.00000
				CHANNELS 3 Zrotation Yrotation Xrotation
				JOINT RightAnkle
				{
					OFFSET -2.54143 -6.98254 0.00000
					CHANNELS 3 Zrotation Yrotation Xrotation
					JOINT RightToe
					{
						OFFSET -0.23309 -0.64041 1.93119
						CHANNELS 3 Zrotation Yrotation Xrotation
						End Site
						{
							OFFSET -0.00000 -0.00000 1.02013
						}
					}
				}
			}
		}
	}
	JOINT lowerback
	{
		OFFSET 0 0 0
		CHANNELS 3 Zrotation Yrotation Xrotation
		JOINT Chest
		{
			OFFSET -0.07096 2.10460 -0.27878
			CHANNELS 3 Zrotation Yrotation Xrotation
			JOINT Chest2
			{
				OFFSET -0.00826 2.13662 -0.08279
				CHANNELS 3 Zrotation Yrotation Xrotation
				JOINT lowerneck
				{
					OFFSET 0 0 0
					CHANNELS 3 Zrotation Yrotation Xrotation
					JOINT Neck
					{
						OFFSET 0.03239 1.77799 0.24435
						CHANNELS 3 Zrotation Yrotation Xrotation
						JOINT Head
						{
							OFFSET 0.01026 1.74194 -0.49664
							CHANNELS 3 Zrotation Yrotation Xrotation
							End Site
							{
								OFFSET 0.00170 1.83057 -0.19653
							}
						}
					}
				}
				JOINT LeftCollar
				{
					OFFSET 0 0 0
					CHANNELS 3 Zrotation Yrotation Xrotation
					JOINT LeftShoulder
					{
						OFFSET 3.19178 1.35907 -0.31412
CHANNELS 3 Zrotation Xrotation Yrotation
						JOINT LeftElbow
						{
OFFSET 0 -4.852470 -0.000000
CHANNELS 3 Zrotation Xrotation Yrotation
							JOINT LeftWrist
							{
OFFSET 0 -3.555840 0.000000
CHANNELS 3 Zrotation Xrotation Yrotation
								JOINT lhand
								{
									OFFSET 0 0 0
CHANNELS 3 Zrotation Xrotation Yrotation
									JOINT LFingers
									{
OFFSET 0 -0.693200 0.000000
CHANNELS 3 Zrotation Xrotation Yrotation
										End Site
										{
OFFSET 0 -0.558880 0.000000
										}
									}
								}
								JOINT LThumb
								{
OFFSET 0 0.000000 0.000000
CHANNELS 3 Zrotation Xrotation Yrotation
									End Site
									{
OFFSET 0 -0.567410 0.567410
									}
								}
							}
						}
					}
				}
				JOINT RightCollar
				{
					OFFSET 0 0 0
					CHANNELS 3 Zrotation Yrotation Xrotation
					JOINT RightShoulder
					{
						OFFSET -3.28999 1.24191 -0.26899
CHANNELS 3 Zrotation Xrotation Yrotation
						JOINT RightElbow
						{
OFFSET 0 -4.644620 0.000000
CHANNELS 3 Zrotation Xrotation Yrotation
							JOINT RightWrist
							{
OFFSET 0 -3.407030 0.000000
CHANNELS 3 Zrotation Xrotation Yrotation
								JOINT rhand
								{
									OFFSET 0 0 0
CHANNELS 3 Zrotation Xrotation Yrotation
									JOINT RFingers
									{
OFFSET 0 -0.619580 0.000000
CHANNELS 3 Zrotation Xrotation Yrotation
										End Site
										{
OFFSET 0 -0.499520 0.000000
										}
									}
								}
								JOINT RThumb
								{
OFFSET 0 0.000000 0.000000
CHANNELS 3 Zrotation Xrotation Yrotation
									End Site
									{
OFFSET 0 -0.507150 0.507150
									}
								}
							}
						}
					}
				}
			}
		}
	}
}
MOTION
Frames: 11
Frame Time: 0.008333333333333333
-29.145900 17.009200 1.148000 76.773700 85.988800 72.957400 0.000000 0.000000 0.000000 -16.223000 4.206300 6.857500 0.214100 2.979200 8.220900 0.395200 7.601000 -17.019700 0.704200 -5.363700 -14.948700 0.000000 0.000000 0.000000 4.227600 -3.772800 11.642700 -0.015700 -0.808800 2.222700 -0.747300 -0.909800 -16.685300 -0.021800 0.953800 -2.621700 -4.500400 1.414100 6.987400 -0.045800 1.830200 5.433300 2.375100 0.866500 1.576200 4.132900 2.244500 -23.356000 -0.954800 1.893200 15.693400 -0.728200 1.039900 8.777100 0.000000 -0.000000 0.000000 3.431300 -4.340000 -41.246300 12.805300 -21.001200 2.383000 17.213000 4.358400 24.419400 0.000000 0.000000 0.000000 -7.125000 0.000000 0.000000 -7.468300 4.740900 -6.885400 0.000000 -0.000000 0.000000 -3.920600 -2.942900 47.170700 -15.870000 -25.344000 -3.590100 -7.302600 6.731800 36.605100 0.000000 0.000000 0.000000 7.125000 0.000000 -0.000000 33.145100 63.788200 -15.954100
-29.119148 17.003905 1.094841 75.417644 85.453338 71.461338 0.000000 0.000000 0.000000 -16.988078 4.460148 7.465390 0.183965 2.761925 7.616747 0.392974 7.677866 -17.065074 0.660113 -5.196191 -14.469101 0.000000 0.000000 0.000000 3.645196 -3.188541 12.168250 -0.013774 -0.757441 2.081698 -0.753113 -1.432479 -16.972094 -0.075497 1.765826 -4.858966 -5.109606 1.537431 6.744249 -0.357081 1.985127 5.462878 2.392395 0.929349 1.726577 4.306132 2.246861 -23.626892 -1.258420 1.890848 16.108912 -0.859203 1.017463 8.971643 0.000000 0.000000 0.000000 3.605136 -4.321584 -41.222910 12.951637 -21.216320 2.435728 17.387222 3.822240 24.298750 0.000000 0.000000 0.000000 -7.125000 0.000000 0.000000 -7.351950 4.837639 -6.763101 0.000000 0.000000 0.000000 -3.590946 -2.688387 47.201525 -15.831510 -25.291661 -3.573658 -11.691253 9.161923 32.854515 0.000000 0.000000 0.000000 7.125000 0.000000 0.000000 24.603893 61.678114 -10.396583
-29.103111 17.002499 1.040464 72.940553 84.559128 68.735547 0.000000 0.000000 0.000000 -18.181880 4.762494 8.135857 0.158217 2.562671 7.063492 0.404126 7.872982 -17.384346 0.523602 -4.632941 -12.865353 0.000000 0.000000 0.000000 2.120669 -3.731393 12.060250 -0.015942 -0.814066 2.237353 -0.721937 -0.513405 -16.252893 -0.122523 2.254167 -6.208839 -5.963619 1.716389 6.808221 -0.759841 2.188118 5.455773 2.439086 1.018452 1.661717 4.245549 2.265355 -23.616986 -1.252664 1.935874 16.132360 -0.841063 1.035525 8.978603 0.000000 0.000000 0.000000 3.663593 -4.532636 -41.031608 12.860577 -21.082549 2.402907 16.561577 4.061169 24.060789 0.000000 0.000000 0.000000 -7.125000 0.000000 0.000000 -7.843379 5.200072 -7.169236 0.000000 0.000000 0.000000 -3.326098 -2.364770 47.781405 -15.910678 -25.399304 -3.607551 -8.385514 7.059180 36.251424 0.000000 0.000000 0.000000 7.125000 0.000000 0.000000 31.626388 63.777129 -15.166521
-29.108565 17.004003 0.966347 64.066328 83.973444 59.701102 0.000000 0.000000 0.000000 -18.690578 5.394869 8.474740 0.141024 2.419566 6.666719 0.398519 8.234793 -17.665134 0.474131 -4.414241 -12.245298 0.000000 0.000000 0.000000 1.353565 -3.877074 11.314349 -0.027810 -1.076121 2.958306 -0.690817 0.610053 -15.508892 -0.157296 2.555117 -7.042568 -6.009117 1.999842 6.986220 -1.024943 2.552502 5.422467 2.161409 1.210138 1.508077 4.203907 2.343765 -23.563009 -1.335468 2.076739 16.070298 -0.843064 1.088629 8.952261 0.000000 0.000000 0.000000 3.689830 -4.556419 -40.748130 12.892959 -21.130097 2.414587 15.917588 4.315477 24.805903 0.000000 0.000000 0.000000 -7.125000 0.000000 0.000000 -8.289401 4.538482 -7.691995 0.000000 0.000000 0.000000 -3.069513 -2.268258 47.356350 -15.812250 -25.265385 -3.565489 -5.179244 6.122907 36.913294 0.000000 0.000000 0.000000 7.125000 0.000000 0.000000 35.817378 63.402557 -17.269740
-29.092773 16.998965 0.912913 57.638402 83.917504 53.378940 0.000000 0.000000 0.000000 -18.447093 5.782128 8.726406 0.117374 2.207880 6.080647 0.360084 8.530643 -17.498304 0.550274 -4.751652 -13.201607 0.000000 0.000000 0.000000 1.680607 -3.245023 11.229359 -0.028401 -1.087291 2.988895 -0.682024 0.607705 -15.408922 -0.128590 2.308773 -6.359898 -5.808863 2.060776 6.704322 -1.082985 2.648558 5.281738 1.991306 1.262439 1.517982 4.064391 2.379239 -23.369434 -1.242976 2.163109 16.197587 -0.777346 1.132776 8.963313 0.000000 0.000000 0.000000 3.761684 -4.267382 -41.113057 13.158275 -21.518477 2.511203 17.265076 4.015360 23.824880 0.000000 0.000000 0.000000 -7.125000 0.000000 0.000000 -7.395774 5.334370 -6.728170 0.000000 0.000000 0.000000 -2.789458 -1.987893 46.891053 -15.663993 -25.062932 -3.502452 -10.981835 9.269998 32.621128 0.000000 0.000000 0.000000 7.125000 0.000000 0.000000 25.082015 61.316291 -10.331139
-29.087186 17.002733 0.849056 54.230282 83.480045 49.745483 0.000000 0.000000 0.000000 -18.676374 6.566218 8.998049 0.105955 2.098736 5.778529 0.385435 8.387029 -17.658652 0.431331 -4.213917 -11.679388 0.000000 0.000000 0.000000 1.407757 -2.733515 11.395022 -0.029387 -1.107187 3.043741 -0.686565 0.640934 -15.450564 -0.110110 2.139145 -5.890273 -5.864557 2.236267 6.824549 -1.330292 2.875657 5.267802 1.748260 1.383180 1.430165 4.124722 2.398903 -23.515420 -1.282875 2.173487 16.442202 -0.798034 1.138225 9.074773 0.000000 0.000000 0.000000 3.887105 -4.408636 -41.207219 13.452502 -21.946624 2.619999 15.378642 3.802437 22.690336 0.000000 0.000000 0.000000 -7.125000 0.000000 0.000000 -8.494138 6.750079 -7.522064 0.000000 0.000000 0.000000 -2.427385 -1.949415 46.718476 -15.471000 -24.798079 -3.421014 -12.012405 8.649537 32.247010 0.000000 0.000000 0.000000 7.125000 0.000000 0.000000 23.660069 61.232431 -9.657811
-29.067421 16.998282 0.790722 53.352933 83.363388 48.912145 0.000000 0.000000 0.000000 -19.032170 6.386319 9.408645 0.088618 1.919739 5.283877 0.394765 8.589261 -17.968023 0.316176 -3.612990 -9.990508 0.000000 0.000000 0.000000 1.183721 -2.597008 11.436894 -0.027971 -1.079254 2.966857 -0.684690 0.524457 -15.465626 -0.131189 2.334175 -6.430269 -5.889029 2.205956 6.411249 -1.461466 2.865709 5.262085 1.644181 1.372983 1.659534 4.002891 2.443850 -23.293006 -1.292470 2.288204 16.375848 -0.766799 1.183282 9.015453 0.000000 0.000000 0.000000 3.879047 -4.460130 -41.138143 13.412889 -21.889201 2.605242 15.310164 3.594146 22.969041 0.000000 0.000000 0.000000 -7.125000 0.000000 0.000000 -8.551996 6.477439 -7.620072 0.000000 0.000000 0.000000 -2.247726 -1.859951 46.319468 -15.463896 -24.788414 -3.418044 -12.032202 8.852889 32.669778 0.000000 0.000000 0.000000 7.125000 0.000000 0.000000 24.020775 61.618614 -10.035438
-29.058330 16.994272 0.736354 54.547817 82.717100 49.934632 0.000000 0.000000 0.000000 -20.062434 6.360747 9.997139 0.069202 1.696767 4.668343 0.375680 8.978982 -18.136670 0.289257 -3.458545 -9.558060 0.000000 0.000000 0.000000 0.371588 -2.096893 11.714423 -0.025762 -1.036212 2.848419 -0.683171 0.232151 -15.542996 -0.152337 2.514839 -6.930745 -6.606159 2.304222 6.354116 -1.710475 2.982396 5.297914 1.781401 1.417506 1.706685 4.111203 2.384019 -23.167718 -1.548164 2.230689 16.285638 -0.881965 1.133864 8.965532 0.000000 0.000000 0.000000 3.855639 -4.544286 -40.974734 13.310897 -21.741015 2.567294 15.816299 3.576596 23.399138 0.000000 0.000000 0.000000 -7.125000 0.000000 0.000000 -8.261973 5.974936 -7.436590 0.000000 0.000000 0.000000 -2.110021 -1.945457 45.853769 -15.373184 -24.663440 -3.380129 -12.511805 9.373024 33.166874 0.000000 0.000000 0.000000 7.125000 0.000000 0.000000 23.972852 62.185687 -10.335950
-29.045431 16.986425 0.670354 53.876660 82.333779 49.287516 0.000000 0.000000 0.000000 -20.396109 7.057301 9.868309 0.064650 1.640341 4.512677 0.397204 8.614005 -18.021890 0.246424 -3.192536 -8.815479 0.000000 0.000000 0.000000 -0.140097 -1.783352 11.730550 -0.024399 -1.008490 2.772223 -0.675874 0.174603 -15.477903 -0.138450 2.397682 -6.606047 -6.868925 2.372978 6.205244 -1.887063 3.072637 5.214325 1.744044 1.459920 1.694219 4.284186 2.378407 -23.311715 -1.840779 2.225470 16.570483 -1.010953 1.110046 9.094708 0.000000 0.000000 0.000000 3.909677 -4.448338 -40.972971 13.335157 -21.776311 2.576303 16.365409 3.600325 23.539491 0.000000 0.000000 0.000000 -7.125000 0.000000 0.000000 -7.929855 5.757177 -7.165194 0.000000 0.000000 0.000000 -2.090506 -2.012655 45.579663 -15.252537 -24.496659 -3.330008 -12.781098 9.352124 32.768627 0.000000 0.000000 0.000000 7.125000 0.000000 0.000000 23.316220 61.893695 -9.875160
-29.041660 16.977078 0.608854 50.962778 81.855114 46.335824 0.000000 0.000000 0.000000 -20.742558 7.524655 10.048880 0.054029 1.499827 4.125287 0.397432 8.803346 -18.212006 0.274405 -3.367552 -9.303806 0.000000 0.000000 0.000000 -0.592360 -1.662325 11.445640 -0.028541 -1.090482 2.997812 -0.656780 0.634268 -15.108334 -0.175684 2.699727 -7.443852 -7.015268 2.509154 6.136297 -2.028763 3.253657 5.173719 1.670475 1.550353 1.677811 4.275743 2.447490 -23.321123 -1.836071 2.322551 16.642696 -0.993842 1.155821 9.124415 0.000000 0.000000 0.000000 3.891021 -4.558901 -40.890375 13.246734 -21.647658 2.543604 15.195276 3.650563 24.331427 0.000000 0.000000 0.000000 -7.125000 0.000000 0.000000 -8.702353 5.118536 -7.986030 0.000000 0.000000 0.000000 -2.026674 -2.222636 45.225360 -15.084853 -24.264194 -3.260756 -12.638702 9.551535 33.000667 0.000000 0.000000 0.000000 7.125000 0.000000 0.000000 23.683409 62.067480 -10.138547
-29.028703 16.982793 0.541502 52.657887 81.597433 47.850156 0.000000 0.000000 0.000000 -21.503980 7.385981 10.515280 0.043484 1.345923 3.701092 0.397227 8.949980 -18.355229 0.233566 -3.108767 -8.581774 0.000000 0.000000 0.000000 -1.179919 -1.411608 11.817512 -0.026040 -1.041804 2.863815 -0.654530 0.304837 -15.187536 -0.157244 2.554495 -7.040892 -7.409516 2.433422 6.163207 -2.151531 3.137687 5.151349 1.766159 1.487003 1.640212 4.164523 2.496627 -23.311163 -1.798711 2.421480 16.768014 -0.948516 1.199924 9.167615 0.000000 0.000000 0.000000 3.649832 -4.404759 -40.406542 13.184602 -21.557131 2.520699 15.167266 3.867904 24.835970 0.000000 0.000000 0.000000 -7.125000 0.000000 0.000000 -8.751120 4.614249 -8.115911 0.000000 0.000000 0.000000 -2.289793 -2.280992 45.444706 -15.043958 -24.207255 -3.243962 -12.333222 9.540615 33.283167 0.000000 0.000000 0.000000 7.125000 0.000000 0.000000 24.274226 62.245057 -10.508659
